/* XPM */
static char *c6457646553443c2a444712079e483d4srk29crEdCGcIEHw[] = {
/* columns rows colors chars-per-pixel */
"32 32 221 2 ",
"   c #5ED430",
".  c #188221",
"X  c #96F25E",
"o  c #62E025",
"O  c #87E35A",
"+  c #65E227",
"@  c #4BBE2D",
"#  c #30982C",
"$  c #96F55C",
"%  c #6CCF49",
"&  c #269720",
"*  c #6AD93B",
"=  c #87E557",
"-  c #81E252",
";  c #86E456",
":  c #72DD42",
">  c #31A422",
",  c #5CBD44",
"<  c #77E93B",
"1  c #76E142",
"2  c #8AE55B",
"3  c #68D939",
"4  c #249520",
"5  c #70D24A",
"6  c #2C942A",
"7  c #48C126",
"8  c #83E453",
"9  c #88E35B",
"0  c #73F12C",
"q  c #1B8225",
"w  c #5ED431",
"e  c #52C62F",
"r  c #6AE629",
"t  c #8AE45D",
"y  c #4AC425",
"u  c #8BE75B",
"i  c #7FE14F",
"p  c #65E02A",
"a  c #85E258",
"s  c #83E254",
"d  c #78E146",
"f  c #6CE133",
"g  c #84E257",
"h  c #87E556",
"j  c #60D037",
"k  c #6ED742",
"l  c #89E45B",
"z  c #6AE131",
"x  c #7AE147",
"c  c #82E254",
"v  c #85E259",
"b  c #64E028",
"n  c #80E151",
"m  c #81E054",
"M  c #4EC629",
"N  c #91EB5F",
"B  c #4BC426",
"V  c #54C92D",
"C  c #8CE85B",
"Z  c #7DE04F",
"A  c #51C72B",
"S  c #89E658",
"D  c #7EE14E",
"F  c #8CE561",
"G  c #8FE963",
"H  c black",
"J  c #84E354",
"K  c #7BE04A",
"L  c #A6EC84",
"P  c #63E027",
"I  c #86E159",
"U  c #63E125",
"Y  c #8CEC56",
"T  c #1F8B22",
"R  c #238C27",
"E  c #72EC30",
"W  c #51C42F",
"Q  c #6DE62D",
"!  c #87E25A",
"~  c #59CC32",
"^  c #87E45B",
"/  c #A3ED7F",
"(  c #292B4B",
")  c #9BEA75",
"_  c #79DF47",
"`  c #AAEE89",
"'  c #61DF24",
"]  c #68E02D",
"[  c #56C930",
"{  c #54C82F",
"}  c #65DD2A",
"|  c #88E45B",
" . c #81E152",
".. c #4DC626",
"X. c #6EE531",
"o. c #8BE560",
"O. c #3D4070",
"+. c #A2ED7E",
"@. c #80E150",
"#. c #79DF48",
"$. c #A6EE84",
"%. c #58CB2F",
"&. c #30A121",
"*. c #90ED5B",
"=. c #81E253",
"-. c #69E629",
";. c #86E25A",
":. c #435497",
">. c #4782AF",
",. c #44639F",
"<. c #1D8A20",
"1. c #94F35B",
"2. c #404A84",
"3. c #465EAB",
"4. c #4CA3CF",
"5. c #4875B7",
"6. c #4EC628",
"7. c #8BE75A",
"8. c #94F25B",
"9. c #137D21",
"0. c #74EE2F",
"q. c #A6EE83",
"w. c #77DE45",
"e. c #9CEB76",
"r. c #7BE149",
"t. c #4FC629",
"y. c #82E253",
"u. c #8AE759",
"i. c #50C72A",
"p. c #56CA2F",
"a. c #A6ED84",
"s. c #58DE17",
"d. c #85E158",
"f. c #A4ED81",
"g. c #5DDE1E",
"h. c #86E259",
"j. c #83E354",
"k. c #77DC4A",
"l. c #313864",
"z. c #59CB32",
"x. c #61E024",
"c. c #7ADE4C",
"v. c #4CC527",
"b. c #7EE34C",
"n. c #5DDA26",
"m. c #5ECC38",
"M. c #88E658",
"N. c #5BCD33",
"B. c #82E353",
"V. c #188321",
"C. c #5DD12F",
"Z. c #6BDF33",
"A. c #78E145",
"S. c #6FE139",
"D. c #5ACC32",
"F. c #74DB48",
"G. c #61E023",
"H. c #8EE75F",
"J. c #4AC327",
"K. c #65D13D",
"L. c #78DD4B",
"P. c #6FF025",
"I. c #218A26",
"U. c #60E022",
"Y. c #60CE3A",
"T. c #5CD926",
"R. c #7DE34A",
"E. c #B1F48C",
"W. c #48C421",
"Q. c #56C92F",
"!. c #188320",
"~. c #5DD130",
"^. c #228A27",
"/. c #73F22A",
"(. c #85E159",
"). c #7CE04C",
"_. c #97E96F",
"`. c #51C22E",
"'. c #B0F38B",
"]. c #8CE560",
"[. c #8EE664",
"{. c #88E45C",
"}. c #188220",
"|. c #6CDF35",
" X c #9CE976",
".X c #79E545",
"XX c #74E040",
"oX c #83E255",
"OX c #66E02C",
"+X c #86E654",
"@X c #87E25B",
"#X c #57CB30",
"$X c #70D844",
"%X c #5ECF36",
"&X c #83E256",
"*X c #72E13C",
"=X c #6EE137",
"-X c #53C92D",
";X c #7BDF4D",
":X c #61D038",
">X c #85E554",
",X c #4AC326",
"<X c #289128",
"1X c #74D64C",
"2X c #22921F",
"3X c #66D838",
"4X c #88E657",
"5X c #89E956",
"6X c #5CC041",
"7X c #2FA222",
"8X c #70DC41",
"9X c #6BDA3C",
"0X c #299A20",
"qX c #68CB47",
"wX c #349C2E",
"eX c #44BC25",
"rX c #80E350",
"tX c #83E353",
"yX c #93F25B",
"uX c #1C8622",
"iX c #5BD130",
/* pixels */
"  . X o O + @ # $ % & * = - ; : > , < 1 2 3 4 5 $ 6 7 8 9 0 q w ",
"e r t y u i p a - s d f g - - - - h j k l z x c - v b n c m r e ",
"M N B V C Z A S - D F G H H H H H H H H H H H J - K L P I U Y T ",
"R E W Q ! B ~ S - D ^ / H ( ( ( ( ( ( ( ( ( H J - K ) / _ ` ' ] ",
"[ { } |  ...X.a - - D o.H O.O.O.O.O.O.O.O.O.H c - - K +.@.#.$.K ",
"%.&.*.=.n b v - - - - - H O.O.O.O.O.O.O.O.O.H - - - - - - - - - ",
"e -.;.- - - - - - H H H H :.:.:.>.>.>.,.:.:.H H H H - - - - ;.P ",
"<.1.- - - - - - - H O.O.2.3.3.3.4.4.4.5.3.3.2.O.O.H - - - - - - ",
"<.1.- - - - - - - H O.O.2.3.3.3.4.4.4.5.3.3.2.O.O.H - - - - 1.<.",
"6.7.- - - - - - - H O.O.2.3.3.3.4.4.4.5.3.3.2.O.O.H - - - - 7.6.",
"- - @.@.+.K - - - H O.O.2.3.3.3.4.4.4.5.3.3.2.O.O.H b n =.8.9.0.",
"K q.w./ e.K - c r.H O.O.2.3.3.3.4.4.4.5.3.3.2.O.O.H t.n y.u.i.p.",
"a.s.d.f.g.h.- j.k.H ( ( l.:.:.:.>.>.>.,.:.:.l.( ( H z.B j.y.7.6.",
"- - c x.h.- - j.c.H H H H O.O.O.O.O.O.O.O.O.H H H H C v.y.y.1.<.",
"<.1.- - - - - c b.n.m.2 H O.O.O.O.O.O.O.O.O.H M.N.B n B.- - 1.<.",
"6.7.- - - - - - c x z g H O.O.O.O.O.O.O.O.O.H - S A Z B.- - ;.P ",
"- - c x.h.- - - - - - - H H H H 3.3.3.H H H H - - - - - - u.i.p.",
"- - J y u i p a - s d f g - - H 3.3.3.H l z x c - v b n =.8.V.C.",
"- = B V C Z A S - D F G Z.A.S.H 3.3.3.H C D.F.J - K L P I G.H.M ",
"- = J.Q ! B ~ S - H H H H H H H 3.3.3.H K.B L.J - K ) / _ ` P.I.",
"M H.U.9  ...X.a - H O.O.O.O.O.O.3.3.3.H Y.T.R.c - - K +.@.#.E.W.",
"<.1.- =.n b v - - H O.O.O.O.O.O.3.3.3.H f d c - - - - - - - ;.P ",
"- - - - - - - - - H H H H O.O.O.3.3.3.H - - - - - - - - - u.i.Q.",
"- - - - - - - - - - - - H O.O.O.3.3.3.H - - - - - - - - - 8.!.~.",
"- - - - - - - - - - - - H O.O.O.3.3.3.H - - - - - - - - - - 1.<.",
"P ;.- - - - - - - H H H H 2.2.2.H H H H - - - - - - - - - - 7.6.",
"^./.(.@.+.K - - - H O.O.2.3.3.3.H - )._.o.D - - - v b n =.;.-.`.",
"W.'.w./ e.K - - - H O.O.2.3.3.3.H ].[./ {.D - - - S t.n y.8.}.  ",
"a.s.d.f.g.h.- c r.H H H H H H H H |. X.XXXoX- a OX+Xz.B j.@X/.^.",
"P @Xc x.h.- - j.k.#XC $X%X= &X*X*X@X=X1 oX- - M.-X;XC v.y.y.7.6.",
"- - - - - - - j.c.B :X= - - - - - - - - - - - M.N.B n B.- 8.}.  ",
"- - y.>X,X<X$ 1X2X3X4X- 5X6X7X8X; - = 9X0XqX$ wXeXrXtX- yXuXiX#X"
};
