/* XPM */
static char *a0419c3e158348a1d6d7ac74743a523ecxN7Tm8XV1H7KhIh[] = {
/* columns rows colors chars-per-pixel */
"32 32 172 2 ",
"   c #000000",
".  c #050803",
"X  c #04080C",
"o  c #0D1809",
"O  c #0D1F05",
"+  c #121E0C",
"@  c #060B10",
"#  c #080F14",
"$  c #091016",
"%  c #0D141A",
"&  c #10171D",
"*  c #0E2107",
"=  c #16250F",
"-  c #152314",
";  c #141E21",
":  c #162223",
">  c #142533",
",  c #182937",
"<  c #1C2C3A",
"1  c #116017",
"2  c #13681A",
"3  c #19791D",
"4  c #2F6A12",
"5  c #197D22",
"6  c #3C6A25",
"7  c #3E7225",
"8  c #42742A",
"9  c #182E41",
"0  c #1C3245",
"q  c #203649",
"w  c #243A4D",
"e  c #233D54",
"r  c #283E51",
"t  c #2D4356",
"y  c #254159",
"u  c #2A455D",
"i  c #2D4961",
"p  c #314D64",
"a  c #355066",
"s  c #355169",
"d  c #3A566E",
"f  c #34891B",
"g  c #22921F",
"h  c #3F9417",
"j  c #3A941E",
"k  c #3D9F1F",
"l  c #1B8222",
"z  c #1D8920",
"x  c #228726",
"c  c #259620",
"v  c #299A20",
"b  c #2A9329",
"n  c #329A2D",
"m  c #2FA222",
"M  c #31A222",
"N  c #49AA1B",
"B  c #43B51F",
"V  c #4DBC17",
"C  c #50B01F",
"Z  c #4A842F",
"A  c #439925",
"S  c #50932F",
"D  c #4C8630",
"F  c #4E8932",
"G  c #528E34",
"H  c #539335",
"J  c #599237",
"K  c #57943A",
"L  c #599D39",
"P  c #549C31",
"I  c #40A421",
"U  c #48B526",
"Y  c #46BB25",
"T  c #4BBD24",
"R  c #4CB42B",
"E  c #49B929",
"W  c #58B920",
"Q  c #57B529",
"!  c #56B72D",
"~  c #5EA43C",
"^  c #58B835",
"/  c #60A03F",
"(  c #62AC3F",
")  c #60B734",
"_  c #63B53B",
"`  c #58C01D",
"'  c #56DA17",
"]  c #4BC426",
"[  c #4EC528",
"{  c #56C421",
"}  c #52C52D",
"|  c #5CC52E",
" . c #54C92E",
".. c #59CA2E",
"X. c #58CA23",
"o. c #57CA30",
"O. c #5BCC34",
"+. c #5FC439",
"@. c #5DD330",
"#. c #61CC24",
"$. c #61DE26",
"%. c #65DE29",
"&. c #66C63C",
"*. c #67D731",
"=. c #6BDF32",
"-. c #61D038",
";. c #66D838",
":. c #6ADA3B",
">. c #6AD638",
",. c #63E026",
"<. c #65E029",
"1. c #6AE52B",
"2. c #74EE2F",
"3. c #73F12C",
"4. c #6EE234",
"5. c #73E33C",
"6. c #72EC30",
"7. c #5CBB44",
"8. c #64A740",
"9. c #65AB42",
"0. c #68AA40",
"q. c #67B541",
"w. c #6AB643",
"e. c #69B843",
"r. c #6CB548",
"t. c #77A65F",
"y. c #72B551",
"u. c #5CC041",
"i. c #6EC145",
"p. c #68CB47",
"a. c #6CCF49",
"s. c #70C347",
"d. c #73C44A",
"f. c #75CD4B",
"g. c #6DD342",
"h. c #74D443",
"j. c #73DB43",
"k. c #79DF47",
"l. c #75D24B",
"z. c #7AD54E",
"x. c #75DB49",
"c. c #7BDB4D",
"v. c #77C250",
"b. c #7ECC58",
"n. c #7BCA55",
"m. c #7DD651",
"M. c #7EDC50",
"N. c #7CE04C",
"B. c #78E145",
"V. c #7FE052",
"C. c #88BC6C",
"Z. c #82C85F",
"A. c #82DD55",
"S. c #83D25D",
"D. c #82E253",
"F. c #88E657",
"G. c #8CEA57",
"H. c #86E25A",
"J. c #89E45A",
"K. c #8CE85B",
"L. c #91EC5B",
"P. c #95F45C",
"I. c #8CC26F",
"U. c #8AD068",
"Y. c #95D775",
"T. c #99DF77",
"R. c #96DB74",
"E. c #8BE361",
"W. c #9CE579",
"Q. c #A3ED7F",
"!. c #A5EC83",
"~. c #AAEE89",
/* pixels */
"@.l P.,.H.,.[ b P.a.c :.D.M.H.j.m 7.5.B.H.:.c l.P.b ] D.H.3.l @.",
"} 1.E.] K.V.<.H.D.D.B.4.A.M.M.m.z.A.O.:.H.=.k.D.D.H.<.N.D.D.1.} ",
"[ L.] o.K.N. .J.M.V.U.J.*.j.*.m.A.&.E g.A.o.j.A.D.N.!.,.H.,.G.x ",
"x 2.} 1.H.] O.H.D.k.V.W.U.n.f.| d.^ T h.&.Y x.A.V.N.W.Q.B.~.,.1.",
"o.o.<.H.D.[ 4.D.M.c.f.n.Z._ y.y.( Q ) v.^ { x.A.V.V.N.Q.V.N.!.N.",
"o.M L.V.V.<.D.M.z.l.s.w.( L L J H J L 9.Q &.l.z.c.V.N.D.V.D.D.V.",
"} 1.H.D.D.M.M.m.f.i.w.~ + : : : : : : = ~ w.s.f.c.M.V.V.D.V.H.,.",
"z P.D.V.V.M.z.l.s.q.~ G . d d d d d d . G ~ q.s.f.c.N.V.V.D.D.V.",
"z P.V.V.c.z.f.i.( L D 8 . d d d d d d . 8 D L 9.d.f.z.A.D.N.P.z ",
"[ H.V.c.z.l.s.w.~ - : : & d d d d d d % : : - L q.s.f.z.c.A.F.[ ",
"D.A.N.c.R.i.q.~ D : d d d d d d d d d d d d : F ~ r.{ z.z.L.3 2.",
"k.!.j.T.U._ ~ G 7 : d d d d d d d d d d d d ; 8 G 8.M d.z.H.}  .",
"!.' A.Y.V 9.+ . . % d d d d d d d d d d d d % . . + A N l.c.J.} ",
"M.c.z.X.r.L : d d d d d d t t i t t t d d d d d d : / k s.c.G.z ",
"z K.f.e.9.H : d d d d d d t t t t t i d d d d d d : G ( e.h.G.z ",
"[ A.f.w.~ D : d d d d d d t t t t t t d d d d d d : Z ( e.d.S.$.",
"c.f.e.N K 8 ; d d a t t t       .     t t t a d d : 8 H ( d.U | ",
"c.f.r.f G 6 ; d d a t y t             t t t p d d ; 4 D L v.2 ..",
"z.d.j O + o % s d p t r t             t t t p s s & + O = N v.] ",
"l.r.f % s s p r r <                         < r r p p s & t.` 5 ",
"U r.h & p p i r w <                         < r r i a p % S C.B ",
"3 w.F & p p i w w <                         , w w i i p % G 8.X.",
"s.( F % i i t q q <                         , w q u i i % H j R ",
"d.( F $ i i u q q <                         , q q u i u % J 1 ! ",
"f.~ F % t i e 0 0 >                         > 0 0 y u i # F r.3 ",
"X.( G $ t u e 0 0 >                         > 0 0 y u u $ F 9.U ",
"5 C L $ u u e 0 9 >                         > 9 9 e y u # J C R ",
"B I.P % e e e 9 9 >                         > 9 9 r e y $ ( 2  .",
"W.V 9.. $ $ # @ @ X                     .   X @ @ # $ $ . 9.#.x ",
"<.H.V.,.H.V.D.D.x.o.K.j.@.J.D.5.5.H.4.B.D.D.D.F. .N.K.[ A.D.J.[ ",
"V.V.V.D.V.V.V.D.c.] @.F.D.D.D.D.D.D.D.V.D.V.D.K.O.] M.D.D.P.l @.",
"D.D.V.F.] b P.z.c ;.J.V.K.7.M :.F.D.H.:.v p.P.n Y N.D.D.P.l @.o."
};
