/* XPM */
static char *_646fdccf7e6411fb87abee6c179ffcaVyjCpKZDW6rdBioA[] = {
/* columns rows colors chars-per-pixel */
"32 32 242 2 ",
"   c #137D21",
".  c #22921F",
"X  c #188220",
"o  c #188320",
"O  c #188221",
"+  c #188321",
"@  c #1C8622",
"#  c #1B8225",
"$  c #1D8A20",
"%  c #1F8B22",
"&  c #218A26",
"*  c #228A27",
"=  c #238C27",
"-  c #249520",
";  c #269720",
":  c #299A20",
">  c #289128",
",  c #2C942A",
"<  c #30982C",
"1  c #349C2E",
"2  c #2FA222",
"3  c #30A121",
"4  c #31A422",
"5  c #44BC25",
"6  c #4BBE2D",
"7  c #58DE17",
"8  c #5DDE1E",
"9  c #48C421",
"0  c #48C126",
"q  c #4AC326",
"w  c #4AC327",
"e  c #4AC425",
"r  c #4BC426",
"t  c #4CC527",
"y  c #4DC626",
"u  c #4EC628",
"i  c #4EC629",
"p  c #4FC629",
"a  c #50C72A",
"s  c #51C72B",
"d  c #51C22E",
"f  c #51C42F",
"g  c #52C62F",
"h  c #53C92D",
"j  c #54C92D",
"k  c #54C82F",
"l  c #56C92F",
"z  c #56CA2F",
"x  c #58CB2F",
"c  c #59D526",
"v  c #5AD626",
"b  c #5CD926",
"n  c #5DDA26",
"m  c #5DD12F",
"M  c #56C930",
"N  c #57CB30",
"B  c #59CB32",
"V  c #59CC32",
"C  c #5ACC32",
"Z  c #5BCD33",
"A  c #5CCD34",
"S  c #5ECF36",
"D  c #5ECC38",
"F  c #5BD130",
"G  c #5DD130",
"H  c #5ED430",
"J  c #5ED431",
"K  c #61DF24",
"L  c #65DD2A",
"P  c #60CE3A",
"I  c #60D037",
"U  c #6BDF33",
"Y  c #6CDF35",
"T  c #61D038",
"R  c #63D03B",
"E  c #65D23B",
"W  c #64D03D",
"Q  c #65D13D",
"!  c #67D33D",
"~  c #66D13E",
"^  c #69D43E",
"/  c #66D838",
"(  c #68D939",
")  c #6AD93B",
"_  c #6BDA3C",
"`  c #60E022",
"'  c #61E023",
"]  c #61E024",
"[  c #62E025",
"{  c #63E125",
"}  c #63E027",
"|  c #65E227",
" . c #64E028",
".. c #65E02A",
"X. c #66E02C",
"o. c #69E629",
"O. c #6AE629",
"+. c #68E02D",
"@. c #69E12F",
"#. c #6DE62D",
"$. c #74EE2F",
"%. c #6FF025",
"&. c #73F22A",
"*. c #73F12C",
"=. c #6AE131",
"-. c #6CE133",
";. c #6DE232",
":. c #6EE531",
">. c #6DE135",
",. c #6DE036",
"<. c #6EE137",
"1. c #6FE139",
"2. c #72EC30",
"3. c #72E13C",
"4. c #77E93B",
"5. c #5CBD44",
"6. c #5CC041",
"7. c #68CB47",
"8. c #6CCF49",
"9. c #6ED742",
"0. c #70DC41",
"q. c #72DD42",
"w. c #70D844",
"e. c #72DA46",
"r. c #74DB47",
"t. c #77DE45",
"y. c #79DF47",
"u. c #70D24A",
"i. c #74D64C",
"p. c #74DB48",
"a. c #77DC4A",
"s. c #79DF48",
"d. c #78DD4B",
"f. c #7ADE4C",
"g. c #7BDF4D",
"h. c #7ADC4F",
"j. c #74E040",
"k. c #75E140",
"l. c #76E142",
"z. c #77E144",
"x. c #78E145",
"c. c #78E146",
"v. c #7AE147",
"b. c #79E545",
"n. c #7BE149",
"m. c #7BE04A",
"M. c #7DE34A",
"N. c #7CE04C",
"B. c #7DE04D",
"V. c #7EE34C",
"C. c #7DE04F",
"Z. c #7EE14E",
"A. c #7FE14F",
"S. c #81E74B",
"D. c #82E74D",
"F. c #80E150",
"G. c #80E151",
"H. c #80E350",
"J. c #80E052",
"K. c #81E152",
"L. c #81E252",
"P. c #81E253",
"I. c #82E253",
"U. c #82E353",
"Y. c #83E353",
"T. c #81E650",
"R. c #83E452",
"E. c #83E453",
"W. c #81E054",
"Q. c #82E254",
"!. c #83E254",
"~. c #83E354",
"^. c #83E255",
"/. c #83E256",
"(. c #84E354",
"). c #84E256",
"_. c #84E257",
"`. c #85E554",
"'. c #86E654",
"]. c #86E456",
"[. c #86E556",
"{. c #87E556",
"}. c #87E557",
"|. c #88E657",
" X c #89E956",
".X c #8CEC56",
"XX c #85E158",
"oX c #85E159",
"OX c #86E159",
"+X c #85E258",
"@X c #85E259",
"#X c #86E259",
"$X c #86E25A",
"%X c #87E25A",
"&X c #87E35A",
"*X c #87E25B",
"=X c #86E758",
"-X c #87E45B",
";X c #88E35B",
":X c #88E658",
">X c #89E658",
",X c #8AE759",
"<X c #88E45B",
"1X c #89E45B",
"2X c #89E55B",
"3X c #8AE55B",
"4X c #8BE75A",
"5X c #8BE75B",
"6X c #88E45C",
"7X c #8AE45D",
"8X c #8EE75F",
"9X c #8CE85B",
"0X c #90ED5B",
"qX c #91EB5F",
"wX c #93F25B",
"eX c #94F25B",
"rX c #94F35B",
"tX c #96F25E",
"yX c #96F55C",
"uX c #8BE560",
"iX c #8CE560",
"pX c #8CE561",
"aX c #8DE562",
"sX c #8EE664",
"dX c #8FE665",
"fX c #8FE963",
"gX c #92E769",
"hX c #94E76C",
"jX c #97E96F",
"kX c #9BEA75",
"lX c #9CE976",
"zX c #9CEB76",
"xX c #A2ED7E",
"cX c #A3ED7F",
"vX c #A4ED81",
"bX c #A6EE83",
"nX c #A6EC84",
"mX c #A6ED84",
"MX c #A6EE84",
"NX c #AAEE89",
"BX c #B0F38B",
"VX c #B1F48C",
/* pixels */
"H O tXK ;X| 6 < yX8.. ) |.P.[.q.4 5.4.l.4X( . u.yX, q P.;X*.# I ",
"g O.7Xq 4XA...+XP.(.v.;.!.D.P.P.P.|.I 9.;X;.v.W.P.+XK P.W.W.O.h ",
"i qXr h 4XA.s 4XP.B.aXfXY y.1.W.[.! r e.4XZ r.(.P.v.mX| !.| .X% ",
"= 2.g #.+Xr B |.P.A.;XxXdXaX[.<.4XQ v S.Q e d.(.P.B.lXxXd.NX` +.",
"x x L ;XP.i :.+XJ.P.F.7XjXd.dXgXJ.1.t.4XD n B.P.D.P.s.cXD.y.nXs.",
"x : 0XP.P.K +XP.J.J.P.P.(.J.D.P.P.P.P.!.=.v.P.P.J.P.(.P.J.P.P.P.",
"g O.+XP.J.D.P.P.P.D.J.J.F.P.P.P.P.P.D.P.P.P.P.P.J.P.J.P.P.P.;XK ",
"$ eXP.P.P.P.P.P.P.P.(.J.D.P.P.P.P.P.J.J.P.P.D.J.P.P.D.P.P.P.P.P.",
"$ eXP.P.P.P.D.P.P.D.J.J.P.P.P.J.J.D.P.P.P.P.J.D.P.P.P.P.D.(.eX$ ",
"i 4XP.P.P.(.J.P.P.P.P.J.P.P.D.J.J.P.P.J.P.P.J.P.J.D.P.P.J.J.4Xr ",
"P.P.D.F.xXs.P.P.P.P.!.y.Y !.J.(.P.P.g.jX7XD.P.P.J.+XK J.P.eX  $.",
"s.nXt.xXlXs.P.(.v.@.;Xw.I {.P.g.hX7XsXcX7Xg.P.P.J.4Xs J.P.4Xs x ",
"nX7 OXnX8 !.P.(.d.x 9Xa.r ! D.hXD.Y lXv.t.P.P.!.+.|.C r (.(.4Xr ",
"P.P.!.K +XP.J.!.d.e P D.v Q |.P.P.!.<.z.!.P.P.|.j s.9Xr P.P.eX$ ",
"$ eXP.D.P.P.P.W.S.n D 7Xl.<.!.P.P.J.P.P.P.D.P.|.C r P.P.P.P.eX$ ",
"y 4XP.P.P.P.P.D.W.v.=.!.P.P.P.P.P.D.P.P.P.P.P.P.|.s g.(.P.P.+X| ",
"P.P.W.K +XJ.P.(.P.P.P.P.P.P.P.P.P.!.<.t.!.P.P.P.P.D.(.P.P.,Xs j ",
"P.P.[.q 7XD.L !.P.P.z.;.!.J.D.P.P.{.I 9.;X=.v.(.J.OXK P.P.eXo m ",
"D.!.e j 9XA.g |.P.B.aXfXY y.3.P.|.! r e.4XZ r.(.P.B.mXK !.K 8Xs ",
"P.4Xq #.;Xe B 4XJ.D.;XxXdXaX[.Y 4XQ v S.E r d.(.P.d.kXxXy.NX%.& ",
"i 7X` 7X(.r :.!.P.J.g.aXjXy.dXhXJ.Y t.4XP b B.P.P.P.s.cXP.y.BX9 ",
"$ eXP.P.J.K +XP.P.D.P.J.(.J.J.P.P.P.P.!.;.y.P.P.D.P.P.P.P.P.;XK ",
"P.P.P.P.J.(.P.P.P.J.P.P.D.J.P.P.P.P.P.P.P.J.J.P.J.J.D.P.P.|.s x ",
"P.J.D.P.J.J.D.P.P.J.D.P.P.P.P.J.P.P.D.J.P.D.P.P.J.(.P.P.P.eX@ x ",
"P.P.D.J.J.P.P.P.P.P.P.P.P.P.J.J.P.P.P.P.P.P.P.P.P.P.P.D.J.P.eX$ ",
"L !.P.P.P.P.J.D.P.P.D.P.D.P.D.P.P.P.D.P.P.J.D.P.D.P.P.P.J.P.4Xy ",
"* &.+XF.xXs.J.J.P.P.v.=.XXP.P.(.P.D.B.jX7XA.[.P.J.OXK J.P.!.O.d ",
"9 BXy.cXxXs.P.P.P.~.e.A !.P.P.g.gXuXaXmX+XA.H.W.J.4Xs J.(.rXo I ",
"nX7 !.xX8 !.(.W.n.;.h.r E +Xs.jXP.Y lXv.l.W.P.!...[.B r (.;X&.& ",
"K 7X!.K !.(.P.!.a.N 9Xw.G 4X!.3.3.OX<.l.[.H.P.|.j g.9Xr P.P.4Xy ",
"W.P.P.P.P.P.P.(.N.r T 4XW.W.W.P.D.P.P.P.R.H.P.4XA r P.P.D.rXO I ",
"P.P.(.R.q > yXi.. / +XH. X6.3 0.!.P.[.) . 7.yX1 5 H.W.A.rX@ m x "
};
