/* XPM */
static char *a16afad005c34256a65cd6ecd2b102962hsWaaLJaJnmc78H[] = {
/* columns rows colors chars-per-pixel */
"32 32 7 1 ",
"  c None",
". c black",
"X c gray20",
"o c gray30",
"O c #808080",
"+ c gray80",
"@ c white",
/* pixels */
"    OOOOOOOOOOOOOOOOOOOO    ++++",
"    OOOOOOOOOOOOOOOOOOOO    ++++",
"    OOOOOOOOOOOOOOOOOOOO    ++++",
"    OOOOOOOOOOOOOOOOOOOO    ++++",
"    OOOO@@@@@@@@@@@@@@@@    ++++",
"    OOOO@@@@@@@@@@@@@@@@    ++++",
"    OOOO@@@@@@@@@@@@@@@@    ++++",
"    OOOO@@@@@@@@@@@@@@@@    ++++",
"    OOOO@@@@............    ++++",
"    OOOO@@@@............    ++++",
"    OOOO@@@@............    ++++",
"    OOOO@@@@............    ++++",
"    OOOO@@@@@@@@....@@@@    ++++",
"    OOOO@@@@@@@@....@@@@    ++++",
"    OOOO@@@@@@@@....@@@@    ++++",
"    OOOO@@@@@@@@....@@@@    ++++",
"ooooooooooooOOOOOOOOOOOOOOOO@@@@",
"ooooooooooooOOOOOOOOOOOOOOOO@@@@",
"ooooooooooooOOOOOOOOOOOOOOOO@@@@",
"ooooooooooooOOOOOOOOOOOOOOOO@@@@",
"ooooooooooooXXXX@@@@XXXX        ",
"ooooooooooooXXXX@@@@XXXX        ",
"ooooooooooooXXXX@@@@XXXX        ",
"ooooooooooooXXXX@@@@XXXX        ",
"ooooooooooooOOOOOOOOOOOO        ",
"ooooooooooooOOOOOOOOOOOO        ",
"ooooooooooooOOOOOOOOOOOO        ",
"ooooooooooooOOOOOOOOOOOO        ",
"        ....        ....        ",
"        ....        ....        ",
"        ....        ....        ",
"        ....        ....        "
};
