/* XPM */
static char *_82ca4c2c3254737d37928a22052f760HYDEm1lxYLiYRCwY[] = {
/* columns rows colors chars-per-pixel */
"32 32 124 2 ",
"   c #5ED430",
".  c #188221",
"X  c #96F25E",
"o  c #62E025",
"O  c #808080",
"+  c #96F55C",
"@  c #2C942A",
"#  c #48C126",
"$  c #83E453",
"%  c #52C62F",
"&  c #6AE629",
"*  c #8AE45D",
"=  c #4AC425",
"-  c #81E252",
";  c #85E259",
":  c #64E028",
">  c #80E151",
",  c #4EC629",
"<  c #91EB5F",
"1  c #4BC426",
"2  c #54C92D",
"3  c #7BE04A",
"4  c #A6EC84",
"5  c #63E027",
"6  c #238C27",
"7  c #72EC30",
"8  c #51C42F",
"9  c #6DE62D",
"0  c #9BEA75",
"q  c #A3ED7F",
"w  c #56C930",
"e  c #54C82F",
"r  c #65DD2A",
"t  c #88E45B",
"y  c white",
"u  c #A2ED7E",
"i  c #58CB2F",
"p  c #30A121",
"a  c #90ED5B",
"s  c #81E253",
"d  c #69E629",
"f  c #86E25A",
"g  c #1D8A20",
"h  c #94F35B",
"j  c gray10",
"k  c #4EC628",
"l  c #8BE75A",
"z  c #80E150",
"x  c #A6EE83",
"c  c #77DE45",
"v  c #89E658",
"b  c #4FC629",
"n  c #A6ED84",
"m  c #58DE17",
"M  c #85E158",
"N  c #A4ED81",
"B  c #66E02C",
"V  c #86E654",
"C  c #59CB32",
"Z  c #82E254",
"A  c #61E024",
"S  c #53C92D",
"D  c #7BDF4D",
"F  c #8CE85B",
"G  c #4CC527",
"H  c #5BCD33",
"J  c #82E353",
"K  c #51C72B",
"L  c #7DE04F",
"P  c gray20",
"I  c #79DF48",
"U  c #B1F48C",
"Y  c #48C421",
"T  c #8AE759",
"R  c #50C72A",
"E  c #56C92F",
"W  c #94F25B",
"Q  c #188320",
"!  c #5DD130",
"~  c #51C22E",
"^  c #82E253",
"/  c #188220",
"(  c black",
")  c #7BE149",
"_  c #6DE232",
"`  c #7ADC4F",
"'  c #65D23B",
"]  c #87E557",
"[  c #7DE04D",
"{  c #94E76C",
"}  c #81E650",
"|  c #6CDF35",
" . c #9CE976",
".. c #79E545",
"X. c #83E354",
"o. c #87E25B",
"O. c #73F22A",
"+. c #228A27",
"@. c #77DC4A",
"#. c #57CB30",
"$. c #70D844",
"%. c #5ECF36",
"&. c #83E256",
"*. c #72E13C",
"=. c #6EE137",
"-. c #76E142",
";. c #7ADE4C",
":. c #61D038",
">. c #85E554",
",. c #22921F",
"<. c #66D838",
"1. c #88E657",
"2. c #89E956",
"3. c #5CC041",
"4. c #2FA222",
"5. c #70DC41",
"6. c #86E456",
"7. c #6BDA3C",
"8. c #44BC25",
"9. c #80E350",
"0. c #83E353",
"q. c #93F25B",
"w. c #1C8622",
"e. c #5BD130",
/* pixels */
"  . X o O O O O O O O O O O O O O O O O O O O O + @ # $ O O O O ",
"% & * = O O O O O O O O O O O O O O O O O O O O - ; : > O O O O ",
", < 1 2 O O O O O O O O O O O O O O O O O O O O - 3 4 5 O O O O ",
"6 7 8 9 O O O O O O O O O O O O O O O O O O O O - 3 0 q O O O O ",
"w e r t O O O O y y y y y y y y y y y y y y y y - - 3 u O O O O ",
"i p a s O O O O y y y y y y y y y y y y y y y y - - - - O O O O ",
"% d f - O O O O y y y y y y y y y y y y y y y y - - - - O O O O ",
"g h - - O O O O y y y y y y y y y y y y y y y y - - - - O O O O ",
"g h - - O O O O y y y y j j j j j j j j j j j j - - - - O O O O ",
"k l - - O O O O y y y y j j j j j j j j j j j j - - - - O O O O ",
"- - z z O O O O y y y y j j j j j j j j j j j j - ; : > O O O O ",
"3 x c q O O O O y y y y j j j j j j j j j j j j - v b > O O O O ",
"n m M N O O O O y y y y y y y y j j j j y y y y B V C 1 O O O O ",
"- - Z A O O O O y y y y y y y y j j j j y y y y S D F G O O O O ",
"g h - - O O O O y y y y y y y y j j j j y y y y H 1 > J O O O O ",
"k l - - O O O O y y y y y y y y j j j j y y y y v K L J O O O O ",
"P P P P P P P P P P P P O O O O O O O O O O O O O O O O y y y y ",
"P P P P P P P P P P P P O O O O O O O O O O O O O O O O y y y y ",
"P P P P P P P P P P P P O O O O O O O O O O O O O O O O y y y y ",
"P P P P P P P P P P P P O O O O O O O O O O O O O O O O y y y y ",
"P P P P P P P P P P P P j j j j y y y y P P P P - - 3 u z I U Y ",
"P P P P P P P P P P P P j j j j y y y y P P P P - - - - - - f 5 ",
"P P P P P P P P P P P P j j j j y y y y P P P P - - - - - T R E ",
"P P P P P P P P P P P P j j j j y y y y P P P P - - - - - W Q ! ",
"P P P P P P P P P P P P O O O O O O O O O O O O - - - - - - h g ",
"P P P P P P P P P P P P O O O O O O O O O O O O - - - - - - l k ",
"P P P P P P P P P P P P O O O O O O O O O O O O - ; : > s f d ~ ",
"P P P P P P P P P P P P O O O O O O O O O O O O - v b > ^ W /   ",
"n m M N ( ( ( ( ) _ ` 1 ' ] [ { } |  ...( ( ( ( B V C 1 X.o.O.+.",
"5 o.Z A ( ( ( ( @.#.F $.%.] &.*.*.o.=.-.( ( ( ( S D F G ^ ^ l k ",
"- - - - ( ( ( ( ;.1 :.] - - - - - - - - ( ( ( ( H 1 > J - W /   ",
"- - ^ >.( ( ( ( ,.<.1.- 2.3.4.5.6.- ] 7.( ( ( ( 8.9.0.- q.w.e.#."
};
